<svg xmlns="http://www.w3.org/2000/svg" viewBox="0 0 760 500" width="760" height="500" font-family="-apple-system,Segoe UI,Roboto,sans-serif">
<rect width="760" height="500" fill="#fff"/>
<line x1="58.0" y1="54.0" x2="58.0" y2="440.0" stroke="#f2f2f2" stroke-width="1"/>
<text x="58.0" y="455.0" font-size="9" text-anchor="middle" fill="#aaa" font-weight="normal">0%</text>
<line x1="152.6" y1="54.0" x2="152.6" y2="440.0" stroke="#f2f2f2" stroke-width="1"/>
<text x="152.6" y="455.0" font-size="9" text-anchor="middle" fill="#aaa" font-weight="normal">5%</text>
<line x1="247.1" y1="54.0" x2="247.1" y2="440.0" stroke="#f2f2f2" stroke-width="1"/>
<text x="247.1" y="455.0" font-size="9" text-anchor="middle" fill="#aaa" font-weight="normal">10%</text>
<line x1="341.7" y1="54.0" x2="341.7" y2="440.0" stroke="#f2f2f2" stroke-width="1"/>
<text x="341.7" y="455.0" font-size="9" text-anchor="middle" fill="#aaa" font-weight="normal">15%</text>
<line x1="436.3" y1="54.0" x2="436.3" y2="440.0" stroke="#f2f2f2" stroke-width="1"/>
<text x="436.3" y="455.0" font-size="9" text-anchor="middle" fill="#aaa" font-weight="normal">20%</text>
<line x1="530.9" y1="54.0" x2="530.9" y2="440.0" stroke="#f2f2f2" stroke-width="1"/>
<text x="530.9" y="455.0" font-size="9" text-anchor="middle" fill="#aaa" font-weight="normal">25%</text>
<line x1="625.4" y1="54.0" x2="625.4" y2="440.0" stroke="#f2f2f2" stroke-width="1"/>
<text x="625.4" y="455.0" font-size="9" text-anchor="middle" fill="#aaa" font-weight="normal">30%</text>
<line x1="720.0" y1="54.0" x2="720.0" y2="440.0" stroke="#f2f2f2" stroke-width="1"/>
<text x="720.0" y="455.0" font-size="9" text-anchor="middle" fill="#aaa" font-weight="normal">35%</text>
<line x1="58.0" y1="440.0" x2="720.0" y2="440.0" stroke="#f2f2f2" stroke-width="1"/>
<text x="52.0" y="443.0" font-size="9" text-anchor="end" fill="#aaa" font-weight="normal">0%</text>
<line x1="58.0" y1="362.8" x2="720.0" y2="362.8" stroke="#f2f2f2" stroke-width="1"/>
<text x="52.0" y="365.8" font-size="9" text-anchor="end" fill="#aaa" font-weight="normal">20%</text>
<line x1="58.0" y1="285.6" x2="720.0" y2="285.6" stroke="#f2f2f2" stroke-width="1"/>
<text x="52.0" y="288.6" font-size="9" text-anchor="end" fill="#aaa" font-weight="normal">40%</text>
<line x1="58.0" y1="208.4" x2="720.0" y2="208.4" stroke="#f2f2f2" stroke-width="1"/>
<text x="52.0" y="211.4" font-size="9" text-anchor="end" fill="#aaa" font-weight="normal">60%</text>
<line x1="58.0" y1="131.2" x2="720.0" y2="131.2" stroke="#f2f2f2" stroke-width="1"/>
<text x="52.0" y="134.2" font-size="9" text-anchor="end" fill="#aaa" font-weight="normal">80%</text>
<line x1="58.0" y1="54.0" x2="720.0" y2="54.0" stroke="#f2f2f2" stroke-width="1"/>
<text x="52.0" y="57.0" font-size="9" text-anchor="end" fill="#aaa" font-weight="normal">100%</text>
<text x="389.0" y="470.0" font-size="10" text-anchor="middle" fill="#888" font-weight="normal">top % of people</text>
<path d="M58.0,440.0 L720.0,304.9" stroke="#bbb" stroke-width="1.5" stroke-dasharray="5 4"/>
<text x="720.0" y="298.9" font-size="9" text-anchor="end" fill="#aaa" font-weight="normal">equality</text>
<path d="M171.48571428571427,331.91999999999996 L455.2,192.96" fill="none" stroke="#0072B2" stroke-width="1.5" stroke-opacity="0.5"/>
<circle cx="171.5" cy="331.9" r="4" fill="#0072B2" fill-opacity="0.85" stroke="#fff" stroke-width="0.5"/>
<circle cx="455.2" cy="193.0" r="4" fill="#0072B2" fill-opacity="0.85" stroke="#fff" stroke-width="0.5"/>
<circle cx="303.9" cy="108.0" r="4" fill="#0072B2" fill-opacity="0.85" stroke="#fff" stroke-width="0.5"/>
<circle cx="76.9" cy="324.2" r="4" fill="#0072B2" fill-opacity="0.85" stroke="#fff" stroke-width="0.5"/>
<circle cx="76.9" cy="250.9" r="4" fill="#0072B2" fill-opacity="0.85" stroke="#fff" stroke-width="0.5"/>
<circle cx="76.9" cy="273.2" r="4" fill="#0072B2" fill-opacity="0.85" stroke="#fff" stroke-width="0.5"/>
<path d="M76.91428571428571,347.36 L76.91428571428571,297.18" fill="none" stroke="#0072B2" stroke-width="1.5" stroke-opacity="0.5"/>
<circle cx="76.9" cy="347.4" r="4" fill="#0072B2" fill-opacity="0.85" stroke="#fff" stroke-width="0.5"/>
<circle cx="76.9" cy="297.2" r="4" fill="#0072B2" fill-opacity="0.85" stroke="#fff" stroke-width="0.5"/>
<path d="M58.05674285714286,292.93399999999997 L62.72857142857143,127.33999999999997" fill="none" stroke="#D55E00" stroke-width="1.5" stroke-opacity="0.5"/>
<circle cx="58.1" cy="292.9" r="4.5" fill="#D55E00" fill-opacity="0.8" stroke="#fff" stroke-width="0.5"/>
<circle cx="62.7" cy="127.3" r="4.5" fill="#D55E00" fill-opacity="0.8" stroke="#fff" stroke-width="0.5"/>
<path d="M76.91428571428571,169.8 L247.14285714285714,61.72000000000003" fill="none" stroke="#D55E00" stroke-width="1.5" stroke-opacity="0.5"/>
<circle cx="76.9" cy="169.8" r="4.5" fill="#D55E00" fill-opacity="0.8" stroke="#fff" stroke-width="0.5"/>
<circle cx="247.1" cy="61.7" r="4.5" fill="#D55E00" fill-opacity="0.8" stroke="#fff" stroke-width="0.5"/>
<circle cx="530.9" cy="150.5" r="4.5" fill="#D55E00" fill-opacity="0.8" stroke="#fff" stroke-width="0.5"/>
<path d="M58.02458857142857,329.604 L58.102137142857146,247.0" fill="none" stroke="#D55E00" stroke-width="1.5" stroke-opacity="0.5"/>
<circle cx="58.0" cy="329.6" r="4.5" fill="#D55E00" fill-opacity="0.8" stroke="#fff" stroke-width="0.5"/>
<circle cx="58.1" cy="247.0" r="4.5" fill="#D55E00" fill-opacity="0.8" stroke="#fff" stroke-width="0.5"/>
<circle cx="63.7" cy="131.2" r="4.5" fill="#D55E00" fill-opacity="0.8" stroke="#fff" stroke-width="0.5"/>
<circle cx="436.3" cy="92.6" r="4.5" fill="#D55E00" fill-opacity="0.8" stroke="#fff" stroke-width="0.5"/>
<path d="M532.7485714285715,92.59999999999997 L650.0171428571429,92.59999999999997" fill="none" stroke="#D55E00" stroke-width="1.5" stroke-opacity="0.5"/>
<circle cx="532.7" cy="92.6" r="4.5" fill="#D55E00" fill-opacity="0.8" stroke="#fff" stroke-width="0.5"/>
<circle cx="650.0" cy="92.6" r="4.5" fill="#D55E00" fill-opacity="0.8" stroke="#fff" stroke-width="0.5"/>
<circle cx="62.4" cy="346.9" r="4.5" fill="#D55E00" fill-opacity="0.8" stroke="#fff" stroke-width="0.5"/>
<circle cx="76.9" cy="150.5" r="4.5" fill="#D55E00" fill-opacity="0.8" stroke="#fff" stroke-width="0.5"/>
<circle cx="76.9" cy="187.9" r="4.5" fill="#D55E00" fill-opacity="0.8" stroke="#fff" stroke-width="0.5"/>
<path d="M59.89142857142857,131.97200000000004 L76.91428571428571,131.2" fill="none" stroke="#D55E00" stroke-width="1.5" stroke-opacity="0.5"/>
<circle cx="59.9" cy="132.0" r="4.5" fill="#D55E00" fill-opacity="0.8" stroke="#fff" stroke-width="0.5"/>
<circle cx="76.9" cy="131.2" r="4.5" fill="#D55E00" fill-opacity="0.8" stroke="#fff" stroke-width="0.5"/>
<circle cx="436.3" cy="200.7" r="4.5" fill="#D55E00" fill-opacity="0.8" stroke="#fff" stroke-width="0.5"/>
<path d="M76.91428571428571,297.18 L247.14285714285714,142.77999999999997" fill="none" stroke="#D55E00" stroke-width="1.5" stroke-opacity="0.5"/>
<circle cx="76.9" cy="297.2" r="4.5" fill="#D55E00" fill-opacity="0.8" stroke="#fff" stroke-width="0.5"/>
<circle cx="247.1" cy="142.8" r="4.5" fill="#D55E00" fill-opacity="0.8" stroke="#fff" stroke-width="0.5"/>
<path d="M266.0571428571428,131.2 L436.2857142857143,147.026 L436.2857142857143,92.21400000000006 L493.0285714285714,131.2" fill="none" stroke="#D55E00" stroke-width="1.5" stroke-opacity="0.5"/>
<circle cx="266.1" cy="131.2" r="4.5" fill="#D55E00" fill-opacity="0.8" stroke="#fff" stroke-width="0.5"/>
<circle cx="436.3" cy="147.0" r="4.5" fill="#D55E00" fill-opacity="0.8" stroke="#fff" stroke-width="0.5"/>
<circle cx="436.3" cy="92.2" r="4.5" fill="#D55E00" fill-opacity="0.8" stroke="#fff" stroke-width="0.5"/>
<circle cx="493.0" cy="131.2" r="4.5" fill="#D55E00" fill-opacity="0.8" stroke="#fff" stroke-width="0.5"/>
<circle cx="60.1" cy="347.0" r="4.5" fill="#D55E00" fill-opacity="0.8" stroke="#fff" stroke-width="0.5"/>
<circle cx="247.1" cy="123.5" r="4.5" fill="#D55E00" fill-opacity="0.8" stroke="#fff" stroke-width="0.5"/>
<line x1="76.9" y1="68.0" x2="76.9" y2="440.0" stroke="#E69F00" stroke-width="1"/>
<text x="82.9" y="304.9" font-size="8.5" text-anchor="start" fill="#888" font-weight="normal">at the top 1%:</text>
<text x="82.9" y="324.2" font-size="8.5" text-anchor="start" fill="#D55E00" font-weight="bold">misinfo ~68%</text>
<text x="82.9" y="343.5" font-size="8.5" text-anchor="start" fill="#0072B2" font-weight="bold">news ~30-49%</text>
<circle cx="68.0" cy="484.0" r="4.5" fill="#D55E00" fill-opacity="0.8" stroke="#fff" stroke-width="0.5"/>
<text x="76.0" y="487.0" font-size="9" text-anchor="start" fill="#666" font-weight="normal">misinformation</text>
<circle cx="188.0" cy="484.0" r="4" fill="#0072B2" fill-opacity="0.8" stroke="#fff" stroke-width="0.5"/>
<text x="196.0" y="487.0" font-size="9" text-anchor="start" fill="#666" font-weight="normal">news in general</text>
</svg>